<svg width="254" height="18" viewBox="0 0 254 18" fill="none" xmlns="http://www.w3.org/2000/svg">
<path d="M2.613 12H0.988V2.744H7.267V4.148H2.613V12ZM12.167 12H10.685V6.462H8.63098L8.53998 9.4C8.51398 10.2753 8.32332 10.9557 7.96798 11.441C7.62132 11.9177 7.14465 12.156 6.53798 12.156C6.16532 12.156 5.86198 12.1083 5.62798 12.013V10.856C5.71465 10.8993 5.89232 10.921 6.16098 10.921C6.75032 10.921 7.06232 10.3663 7.09698 9.257L7.21398 5.292H12.167V12ZM13.6388 7.359C13.7948 5.84233 14.7742 5.084 16.5768 5.084C17.4175 5.084 18.0848 5.24867 18.5788 5.578C19.0815 5.90733 19.3328 6.41867 19.3328 7.112V10.518C19.3328 10.7087 19.3545 10.8387 19.3978 10.908C19.4498 10.9773 19.5452 11.012 19.6838 11.012C19.7878 11.012 19.9005 11.0033 20.0218 10.986V12.026C19.6405 12.1213 19.3198 12.169 19.0598 12.169C18.4272 12.169 18.0632 11.9003 17.9678 11.363C17.4045 11.9003 16.6202 12.169 15.6148 12.169C14.9215 12.169 14.3712 11.9913 13.9638 11.636C13.5565 11.272 13.3528 10.7823 13.3528 10.167C13.3528 9.97633 13.3745 9.79867 13.4178 9.634C13.4612 9.46933 13.5088 9.32633 13.5608 9.205C13.6215 9.08367 13.7125 8.971 13.8338 8.867C13.9638 8.763 14.0678 8.67633 14.1458 8.607C14.2325 8.53767 14.3668 8.47267 14.5488 8.412C14.7395 8.35133 14.8782 8.308 14.9648 8.282C15.0602 8.24733 15.2205 8.21267 15.4458 8.178C15.6712 8.14333 15.8185 8.12167 15.8878 8.113C15.9658 8.09567 16.1218 8.074 16.3558 8.048C16.8845 7.97867 17.2442 7.92233 17.4348 7.879C17.6255 7.827 17.7555 7.75333 17.8248 7.658C17.8855 7.58867 17.9158 7.42833 17.9158 7.177C17.9158 6.501 17.4565 6.163 16.5378 6.163C16.0525 6.163 15.6972 6.254 15.4718 6.436C15.2465 6.618 15.1035 6.92567 15.0428 7.359H13.6388ZM17.9028 8.633C17.7902 8.69367 17.6602 8.75 17.5128 8.802C17.3655 8.84533 17.2442 8.87567 17.1488 8.893C17.0622 8.90167 16.9192 8.919 16.7198 8.945C16.5292 8.971 16.4035 8.98833 16.3428 8.997C16.1608 9.023 16.0178 9.049 15.9138 9.075C15.8098 9.09233 15.6798 9.127 15.5238 9.179C15.3765 9.231 15.2595 9.296 15.1728 9.374C15.0948 9.44333 15.0255 9.543 14.9648 9.673C14.9042 9.79433 14.8738 9.94167 14.8738 10.115C14.8738 10.4357 14.9778 10.6827 15.1858 10.856C15.4025 11.0293 15.7015 11.116 16.0828 11.116C16.7415 11.116 17.2485 10.9383 17.6038 10.583C17.8032 10.3837 17.9028 9.998 17.9028 9.426V8.633ZM26.9205 10.102C26.9205 10.7087 26.7038 11.1767 26.2705 11.506C25.8458 11.8353 25.2391 12 24.4505 12H20.9275V5.292H24.6325C25.2565 5.292 25.7418 5.435 26.0885 5.721C26.4438 6.007 26.6215 6.41 26.6215 6.93C26.6215 7.28533 26.5435 7.57133 26.3875 7.788C26.2315 8.00467 25.9888 8.191 25.6595 8.347V8.373C26.5001 8.58967 26.9205 9.166 26.9205 10.102ZM24.4505 9.036H22.4095V10.882H24.4505C25.1178 10.882 25.4515 10.5787 25.4515 9.972C25.4515 9.67733 25.3648 9.44767 25.1915 9.283C25.0181 9.11833 24.7711 9.036 24.4505 9.036ZM24.2555 6.41H22.4095V7.957H24.2945C24.8665 7.957 25.1525 7.68833 25.1525 7.151C25.1525 6.657 24.8535 6.41 24.2555 6.41ZM29.6331 12H28.1511V5.292H29.6331V7.918H32.5711V5.292H34.0531V12H32.5711V9.088H29.6331V12ZM35.5509 7.359C35.7069 5.84233 36.6863 5.084 38.4889 5.084C39.3296 5.084 39.9969 5.24867 40.4909 5.578C40.9936 5.90733 41.2449 6.41867 41.2449 7.112V10.518C41.2449 10.7087 41.2666 10.8387 41.3099 10.908C41.3619 10.9773 41.4573 11.012 41.5959 11.012C41.6999 11.012 41.8126 11.0033 41.9339 10.986V12.026C41.5526 12.1213 41.2319 12.169 40.9719 12.169C40.3393 12.169 39.9753 11.9003 39.8799 11.363C39.3166 11.9003 38.5323 12.169 37.5269 12.169C36.8336 12.169 36.2833 11.9913 35.8759 11.636C35.4686 11.272 35.2649 10.7823 35.2649 10.167C35.2649 9.97633 35.2866 9.79867 35.3299 9.634C35.3733 9.46933 35.4209 9.32633 35.4729 9.205C35.5336 9.08367 35.6246 8.971 35.7459 8.867C35.8759 8.763 35.9799 8.67633 36.0579 8.607C36.1446 8.53767 36.2789 8.47267 36.4609 8.412C36.6516 8.35133 36.7903 8.308 36.8769 8.282C36.9723 8.24733 37.1326 8.21267 37.3579 8.178C37.5833 8.14333 37.7306 8.12167 37.7999 8.113C37.8779 8.09567 38.0339 8.074 38.2679 8.048C38.7966 7.97867 39.1563 7.92233 39.3469 7.879C39.5376 7.827 39.6676 7.75333 39.7369 7.658C39.7976 7.58867 39.8279 7.42833 39.8279 7.177C39.8279 6.501 39.3686 6.163 38.4499 6.163C37.9646 6.163 37.6093 6.254 37.3839 6.436C37.1586 6.618 37.0156 6.92567 36.9549 7.359H35.5509ZM39.8149 8.633C39.7023 8.69367 39.5723 8.75 39.4249 8.802C39.2776 8.84533 39.1563 8.87567 39.0609 8.893C38.9743 8.90167 38.8313 8.919 38.6319 8.945C38.4413 8.971 38.3156 8.98833 38.2549 8.997C38.0729 9.023 37.9299 9.049 37.8259 9.075C37.7219 9.09233 37.5919 9.127 37.4359 9.179C37.2886 9.231 37.1716 9.296 37.0849 9.374C37.0069 9.44333 36.9376 9.543 36.8769 9.673C36.8163 9.79433 36.7859 9.94167 36.7859 10.115C36.7859 10.4357 36.8899 10.6827 37.0979 10.856C37.3146 11.0293 37.6136 11.116 37.9949 11.116C38.6536 11.116 39.1606 10.9383 39.5159 10.583C39.7153 10.3837 39.8149 9.998 39.8149 9.426V8.633ZM48.5076 12H47.0256V9.296H45.7646L43.6976 12H41.9556L44.1916 9.127C43.6456 8.95367 43.2686 8.70233 43.0606 8.373C42.8526 8.035 42.7486 7.62767 42.7486 7.151C42.7486 6.56167 42.9392 6.10667 43.3206 5.786C43.7019 5.45667 44.2479 5.292 44.9586 5.292H48.5076V12ZM47.0256 8.217V6.423H45.2316C44.5642 6.423 44.2306 6.709 44.2306 7.281C44.2306 7.905 44.5599 8.217 45.2186 8.217H47.0256Z" fill="#333333"/>
<rect x="65" y="7" width="4" height="4" fill="#133D8D"/>
<path d="M88.966 2.523C90.2747 2.523 91.3363 2.97367 92.151 3.875C92.9743 4.76767 93.386 5.93333 93.386 7.372C93.386 8.81067 92.9743 9.98067 92.151 10.882C91.3277 11.7747 90.2573 12.221 88.94 12.221C87.614 12.221 86.5393 11.7747 85.716 10.882C84.9013 9.98933 84.494 8.81933 84.494 7.372C84.494 5.968 84.8927 4.811 85.69 3.901C86.496 2.98233 87.588 2.523 88.966 2.523ZM88.94 3.888C88.0907 3.888 87.4103 4.20433 86.899 4.837C86.3877 5.461 86.132 6.29733 86.132 7.346C86.132 8.42067 86.3833 9.27433 86.886 9.907C87.3973 10.5397 88.0907 10.856 88.966 10.856C89.8067 10.856 90.4783 10.5397 90.981 9.907C91.4923 9.26567 91.748 8.41633 91.748 7.359C91.748 6.30167 91.4923 5.461 90.981 4.837C90.4783 4.20433 89.798 3.888 88.94 3.888ZM104.541 12H102.747L100.641 8.997L99.7571 9.92V12H98.2751V5.292H99.7571V8.269L102.435 5.292H104.242L101.629 7.983L104.541 12ZM108.212 5.097C109.235 5.097 110.05 5.41767 110.656 6.059C111.263 6.70033 111.566 7.56267 111.566 8.646C111.566 9.738 111.263 10.6047 110.656 11.246C110.058 11.8873 109.244 12.208 108.212 12.208C107.164 12.208 106.332 11.8873 105.716 11.246C105.101 10.6047 104.793 9.738 104.793 8.646C104.793 7.56267 105.101 6.70033 105.716 6.059C106.34 5.41767 107.172 5.097 108.212 5.097ZM109.564 6.904C109.235 6.47933 108.776 6.267 108.186 6.267C107.597 6.267 107.133 6.47933 106.795 6.904C106.457 7.32867 106.288 7.90933 106.288 8.646C106.288 9.4 106.457 9.98933 106.795 10.414C107.133 10.8387 107.601 11.051 108.199 11.051C108.78 11.051 109.235 10.8387 109.564 10.414C109.902 9.98067 110.071 9.387 110.071 8.633C110.071 7.89633 109.902 7.32 109.564 6.904ZM114.241 12H112.811V5.292H114.761L116.633 10.622H116.659L118.466 5.292H120.416V12H118.986V7.541H118.96L117.361 12H115.866L114.267 7.541H114.241V12ZM123.447 12H121.965V5.292H127.867V12H126.385V6.462H123.447V12ZM129.364 7.359C129.52 5.84233 130.5 5.084 132.302 5.084C133.143 5.084 133.81 5.24867 134.304 5.578C134.807 5.90733 135.058 6.41867 135.058 7.112V10.518C135.058 10.7087 135.08 10.8387 135.123 10.908C135.175 10.9773 135.271 11.012 135.409 11.012C135.513 11.012 135.626 11.0033 135.747 10.986V12.026C135.366 12.1213 135.045 12.169 134.785 12.169C134.153 12.169 133.789 11.9003 133.693 11.363C133.13 11.9003 132.346 12.169 131.34 12.169C130.647 12.169 130.097 11.9913 129.689 11.636C129.282 11.272 129.078 10.7823 129.078 10.167C129.078 9.97633 129.1 9.79867 129.143 9.634C129.187 9.46933 129.234 9.32633 129.286 9.205C129.347 9.08367 129.438 8.971 129.559 8.867C129.689 8.763 129.793 8.67633 129.871 8.607C129.958 8.53767 130.092 8.47267 130.274 8.412C130.465 8.35133 130.604 8.308 130.69 8.282C130.786 8.24733 130.946 8.21267 131.171 8.178C131.397 8.14333 131.544 8.12167 131.613 8.113C131.691 8.09567 131.847 8.074 132.081 8.048C132.61 7.97867 132.97 7.92233 133.16 7.879C133.351 7.827 133.481 7.75333 133.55 7.658C133.611 7.58867 133.641 7.42833 133.641 7.177C133.641 6.501 133.182 6.163 132.263 6.163C131.778 6.163 131.423 6.254 131.197 6.436C130.972 6.618 130.829 6.92567 130.768 7.359H129.364ZM133.628 8.633C133.516 8.69367 133.386 8.75 133.238 8.802C133.091 8.84533 132.97 8.87567 132.874 8.893C132.788 8.90167 132.645 8.919 132.445 8.945C132.255 8.971 132.129 8.98833 132.068 8.997C131.886 9.023 131.743 9.049 131.639 9.075C131.535 9.09233 131.405 9.127 131.249 9.179C131.102 9.231 130.985 9.296 130.898 9.374C130.82 9.44333 130.751 9.543 130.69 9.673C130.63 9.79433 130.599 9.94167 130.599 10.115C130.599 10.4357 130.703 10.6827 130.911 10.856C131.128 11.0293 131.427 11.116 131.808 11.116C132.467 11.116 132.974 10.9383 133.329 10.583C133.529 10.3837 133.628 9.998 133.628 9.426V8.633ZM138.135 12H136.653V5.292H138.135V7.918H141.073V5.292H142.555V12H141.073V9.088H138.135V12ZM145.99 12H144.118V5.292H145.6V10.18H145.639L148.148 5.292H150.02V12H148.538V7.112H148.499L145.99 12ZM153.455 12H151.583V5.292H153.065V10.18H153.104L155.613 5.292H157.485V12H156.003V7.112H155.964L153.455 12Z" fill="#333333"/>
<rect x="174" y="7" width="4" height="4" fill="#133D8D"/>
<path d="M193.962 2.744H198.187C199.158 2.744 199.899 2.95633 200.41 3.381C200.93 3.797 201.19 4.36033 201.19 5.071C201.19 5.513 201.069 5.91167 200.826 6.267C200.583 6.61367 200.263 6.865 199.864 7.021C200.401 7.151 200.826 7.411 201.138 7.801C201.45 8.191 201.606 8.68067 201.606 9.27C201.606 10.0847 201.333 10.7433 200.787 11.246C200.25 11.7487 199.548 12 198.681 12H193.962V2.744ZM195.548 4.057V6.605H197.758C198.382 6.605 198.841 6.50967 199.136 6.319C199.431 6.11967 199.578 5.79033 199.578 5.331C199.578 4.811 199.422 4.46867 199.11 4.304C198.807 4.13933 198.373 4.057 197.81 4.057H195.548ZM195.548 7.775V10.674H197.979C198.603 10.674 199.093 10.57 199.448 10.362C199.803 10.154 199.981 9.777 199.981 9.231C199.981 8.92767 199.925 8.67633 199.812 8.477C199.708 8.269 199.552 8.11733 199.344 8.022C199.145 7.92667 198.937 7.86167 198.72 7.827C198.503 7.79233 198.248 7.775 197.953 7.775H195.548ZM202.868 7.359C203.024 5.84233 204.004 5.084 205.806 5.084C206.647 5.084 207.314 5.24867 207.808 5.578C208.311 5.90733 208.562 6.41867 208.562 7.112V10.518C208.562 10.7087 208.584 10.8387 208.627 10.908C208.679 10.9773 208.775 11.012 208.913 11.012C209.017 11.012 209.13 11.0033 209.251 10.986V12.026C208.87 12.1213 208.549 12.169 208.289 12.169C207.657 12.169 207.293 11.9003 207.197 11.363C206.634 11.9003 205.85 12.169 204.844 12.169C204.151 12.169 203.601 11.9913 203.193 11.636C202.786 11.272 202.582 10.7823 202.582 10.167C202.582 9.97633 202.604 9.79867 202.647 9.634C202.691 9.46933 202.738 9.32633 202.79 9.205C202.851 9.08367 202.942 8.971 203.063 8.867C203.193 8.763 203.297 8.67633 203.375 8.607C203.462 8.53767 203.596 8.47267 203.778 8.412C203.969 8.35133 204.108 8.308 204.194 8.282C204.29 8.24733 204.45 8.21267 204.675 8.178C204.901 8.14333 205.048 8.12167 205.117 8.113C205.195 8.09567 205.351 8.074 205.585 8.048C206.114 7.97867 206.474 7.92233 206.664 7.879C206.855 7.827 206.985 7.75333 207.054 7.658C207.115 7.58867 207.145 7.42833 207.145 7.177C207.145 6.501 206.686 6.163 205.767 6.163C205.282 6.163 204.927 6.254 204.701 6.436C204.476 6.618 204.333 6.92567 204.272 7.359H202.868ZM207.132 8.633C207.02 8.69367 206.89 8.75 206.742 8.802C206.595 8.84533 206.474 8.87567 206.378 8.893C206.292 8.90167 206.149 8.919 205.949 8.945C205.759 8.971 205.633 8.98833 205.572 8.997C205.39 9.023 205.247 9.049 205.143 9.075C205.039 9.09233 204.909 9.127 204.753 9.179C204.606 9.231 204.489 9.296 204.402 9.374C204.324 9.44333 204.255 9.543 204.194 9.673C204.134 9.79433 204.103 9.94167 204.103 10.115C204.103 10.4357 204.207 10.6827 204.415 10.856C204.632 11.0293 204.931 11.116 205.312 11.116C205.971 11.116 206.478 10.9383 206.833 10.583C207.033 10.3837 207.132 9.998 207.132 9.426V8.633ZM216.423 12H214.629L212.523 8.997L211.639 9.92V12H210.157V5.292H211.639V8.269L214.317 5.292H216.124L213.511 7.983L216.423 12ZM217.074 7.359C217.23 5.84233 218.21 5.084 220.012 5.084C220.853 5.084 221.52 5.24867 222.014 5.578C222.517 5.90733 222.768 6.41867 222.768 7.112V10.518C222.768 10.7087 222.79 10.8387 222.833 10.908C222.885 10.9773 222.981 11.012 223.119 11.012C223.223 11.012 223.336 11.0033 223.457 10.986V12.026C223.076 12.1213 222.755 12.169 222.495 12.169C221.863 12.169 221.499 11.9003 221.403 11.363C220.84 11.9003 220.056 12.169 219.05 12.169C218.357 12.169 217.807 11.9913 217.399 11.636C216.992 11.272 216.788 10.7823 216.788 10.167C216.788 9.97633 216.81 9.79867 216.853 9.634C216.897 9.46933 216.944 9.32633 216.996 9.205C217.057 9.08367 217.148 8.971 217.269 8.867C217.399 8.763 217.503 8.67633 217.581 8.607C217.668 8.53767 217.802 8.47267 217.984 8.412C218.175 8.35133 218.314 8.308 218.4 8.282C218.496 8.24733 218.656 8.21267 218.881 8.178C219.107 8.14333 219.254 8.12167 219.323 8.113C219.401 8.09567 219.557 8.074 219.791 8.048C220.32 7.97867 220.68 7.92233 220.87 7.879C221.061 7.827 221.191 7.75333 221.26 7.658C221.321 7.58867 221.351 7.42833 221.351 7.177C221.351 6.501 220.892 6.163 219.973 6.163C219.488 6.163 219.133 6.254 218.907 6.436C218.682 6.618 218.539 6.92567 218.478 7.359H217.074ZM221.338 8.633C221.226 8.69367 221.096 8.75 220.948 8.802C220.801 8.84533 220.68 8.87567 220.584 8.893C220.498 8.90167 220.355 8.919 220.155 8.945C219.965 8.971 219.839 8.98833 219.778 8.997C219.596 9.023 219.453 9.049 219.349 9.075C219.245 9.09233 219.115 9.127 218.959 9.179C218.812 9.231 218.695 9.296 218.608 9.374C218.53 9.44333 218.461 9.543 218.4 9.673C218.34 9.79433 218.309 9.94167 218.309 10.115C218.309 10.4357 218.413 10.6827 218.621 10.856C218.838 11.0293 219.137 11.116 219.518 11.116C220.177 11.116 220.684 10.9383 221.039 10.583C221.239 10.3837 221.338 9.998 221.338 9.426V8.633ZM225.845 12H224.363V5.292H225.845V7.918H228.783V5.292H230.265V12H228.783V9.088H225.845V12ZM237.912 9.465C237.808 10.2883 237.479 10.947 236.924 11.441C236.369 11.9263 235.672 12.169 234.831 12.169C233.826 12.169 233.024 11.8527 232.426 11.22C231.828 10.5787 231.529 9.74233 231.529 8.711C231.529 7.60167 231.828 6.722 232.426 6.072C233.033 5.41333 233.847 5.084 234.87 5.084C235.728 5.084 236.417 5.30067 236.937 5.734C237.466 6.16733 237.773 6.76967 237.86 7.541H236.391C236.304 7.11633 236.131 6.79133 235.871 6.566C235.611 6.34067 235.282 6.228 234.883 6.228C234.311 6.228 233.86 6.44467 233.531 6.878C233.202 7.30267 233.037 7.88767 233.037 8.633C233.037 9.37833 233.193 9.959 233.505 10.375C233.826 10.791 234.268 10.999 234.831 10.999C235.273 10.999 235.633 10.869 235.91 10.609C236.196 10.3403 236.378 9.959 236.456 9.465H237.912ZM240.923 12H239.051V5.292H240.533V10.18H240.572L243.081 5.292H244.953V12H243.471V7.112H243.432L240.923 12ZM248.388 12H246.516V5.292H247.998V10.18H248.037L250.546 5.292H252.418V12H250.936V7.112H250.897L248.388 12Z" fill="#333333"/>
</svg>
